<svg xmlns="http://www.w3.org/2000/svg" viewBox="0 0 234 271.86"><defs><style>.cls-1{fill:#f26419;}.cls-2{fill:#33658a;}</style></defs><g id="Layer_2" data-name="Layer 2"><g id="Layer_1-2" data-name="Layer 1"><circle class="cls-1" cx="117" cy="34.5" r="34.5"/><path class="cls-1" d="M194.27,105.21a85.64,85.64,0,0,1-36.49,39.16,11,11,0,0,0-5.79,9.87c0,.24,0,.49,0,.73a34.5,34.5,0,1,1-69,0v-.17a11.25,11.25,0,0,0-6-10,85.58,85.58,0,0,1-37.27-39.54A25,25,0,0,1,62.41,69.76h0A25.21,25.21,0,0,1,85.26,84.53a35,35,0,0,0,63.48,0A25.21,25.21,0,0,1,171.53,69.8h0A25,25,0,0,1,194.27,105.21Z"/><path class="cls-2" d="M117,271.86a117.14,117.14,0,0,1-117-117H50a67,67,0,0,0,134,0h50A117.14,117.14,0,0,1,117,271.86Z"/></g></g></svg>